<svg version="1" xmlns="http://www.w3.org/2000/svg" width="388" height="388" viewBox="0 0 291.000000 291.000000"><path d="M159.5.9c-.6.6-2.9 1.1-5.3 1.2-2.4.2-4.6.7-4.8 1.1-.3.4-2.1.8-4 .8s-3.4.4-3.4 1c0 .5-.7 1-1.5 1s-2.3.4-3.3.9c-.9.5-2.4 1.2-3.2 1.5-.8.3-3.7 1.9-6.5 3.6-2.7 1.7-5.8 3.3-6.7 3.7-1 .3-1.8.9-1.8 1.4 0 .5-.7.9-1.5.9s-1.5.4-1.5.8-1.4 1.6-3.1 2.6c-2.7 1.6-10.5 8.3-13.1 11.1-4.1 4.7-6.2 7.6-8 11-1.1 2.2-2.3 4.2-2.7 4.5-3 2.4-11.7 23.2-10.5 25.1.3.5 0 .9-.5.9-.6 0-1.1.9-1.1 2s-.4 2-1 2c-.5 0-1 1-1 2.3 0 1.3-.4 2.7-1 3.3-.5.5-1.1 2.2-1.2 3.7-.1 1.5-.5 2.7-.9 2.7s-1.5 2.5-2.5 5.5c-.9 3.1-2.1 5.8-2.5 6.1-.5.3-.9 1.6-.9 2.9 0 1.3-.4 2.7-1 3-.5.3-1 1.3-1 2.1 0 .9-1.8 5.2-4 9.6-2.2 4.5-4 8.7-4 9.5 0 .7-.4 1.3-1 1.3-.5 0-1 .8-1 1.8s-.5 2.3-1.2 3c-.7.7-.9 1.2-.6 1.2.4 0-.9 2.7-2.8 6.1-1.8 3.3-3.4 6.3-3.4 6.6 0 .3-1.3 3.3-2.9 6.7-8.1 17-11.1 23.9-11.1 25.2 0 .8-.4 1.4-1 1.4-.5 0-1 1-1 2.3 0 1.3-.4 2.7-.8 3.3-.4.5-1.4 2.7-2.1 4.9-1.3 4.1-2.1 6.2-3.9 10.5-.6 1.4-2.1 5.6-3.4 9.5-1.2 3.8-2.5 7.2-2.9 7.5-.3.3-.9 1.8-1.2 3.5-.3 1.6-1.5 6.4-2.6 10.5-1.2 4.1-2.3 8.3-2.6 9.2-.2.9-.8 2.5-1.3 3.5s-1.2 4-1.5 6.8c-.3 2.7-1 6.6-1.6 8.5-.5 1.9-1.2 5.3-1.5 7.5-.7 5-2.8 11.5-3.8 11.5-.5 0-.8 2-.8 4.5v4.5h38v-8.3c0-4.7-.5-8.8-1.1-9.4-1.8-1.8.2-35.1 2.6-44.7 1.6-5.9 7.4-16.3 11.7-20.6 4.8-5 11.7-9 15.3-9 1.3 0 2.7-.5 3-1 .7-1.1 12.3-1.4 14.9-.4.9.3 1.6 1.4 1.6 2.4 0 1.1.4 2.1.9 2.4.5.3 1.1 2 1.4 3.8.5 3.5 5.1 22.3 6.7 27.3 1.1 3.7 2 7.6 3 14 .6 3.7.4 5.6-.6 7.3-.8 1.2-1.1 2.2-.6 2.2.5 0 2.3 3.3 4.1 7.2 8.9 20 8.5 19.2 9.5 16.9.5-1.2 1.8-2.1 3-2.1s2.7-.9 3.4-2c.7-1.2.8-2 .2-2-.5 0-1-1.2-1-2.6 0-1.4-.6-3.1-1.3-3.8-.7-.8-2.9-3.3-4.8-5.6-1.8-2.3-3.8-4.8-4.4-5.4-1.8-2.1-3.5-5.5-3.5-7.1 0-.8-.4-1.5-.9-1.5-1 0-2.1-5.5-2.4-12.5-.1-2.8-.8-5.6-1.4-6.3-.7-.7-1.3-2.2-1.3-3.3 0-1-.4-1.9-1-1.9-.5 0-1-2.3-1-5 0-2.8-.4-5-1-5-.5 0-1-1.5-1-3.4s-.4-3.8-1-4.1c-.5-.3-1-1.9-1-3.6 0-1.6-.4-2.9-1-2.9-.5 0-1-.5-1-1 0-.6 2-1 4.4-1 2.5 0 4.8.4 5.1 1 .7 1.2 4.5 1.4 4.5.2 0-.4-.9-1.4-2-2.2-1.1-.8-2-2-2-2.7 0-.7-.9-2.8-2-4.8s-2-4.9-2-6.5c0-1.6-.5-3.2-1-3.5-.6-.3-1-1.5-1-2.6 0-1.2-.7-1.9-1.9-1.9-1.1 0-2.6-.7-3.5-1.5-.8-.8-1.7-1.5-2.1-1.5-2.1 0-8.5-9.2-8.5-12.3 0-.9-.4-1.7-1-1.7-.5 0-1-1.4-1-3 0-1.7-.4-3-1-3-.5 0-1-2.5-1-5.6v-5.5l7.3-7.2c4-4 8.5-9 10.2-11.2 1.6-2.2 3.7-4.7 4.7-5.6 1-.9 1.6-1.8 1.3-2.1-.3-.2 1.1-1.1 3-1.8 1.9-.8 3.5-1.7 3.5-2 0-.4 2.2-1.6 4.8-2.8 2.6-1.2 5.8-3.1 7-4.2 1.1-1.1 2.6-2 3.2-2 .6 0 1.4-.8 1.7-1.8.4-.9 1.2-2.2 1.7-2.8.6-.6 1.8-2.2 2.6-3.4.8-1.2 2.2-3.1 3.1-4.1 1.6-1.9 1.7-1.9 2.3.6.4 1.4.2 3.3-.2 4.3-.5.9-1.5 4.2-2.1 7.2-.7 3-1.6 6.4-2 7.5-.5 1.1-1.4 3.3-2 4.8-.6 1.5-1.1 3.2-1.1 3.7 0 1.5 7.1 2.4 9.1 1.1 1.1-.6 2.6-1.1 3.4-1.1.8 0 1.5-.5 1.5-1 0-.6.4-1 1-1 3.8 0 22.1-15.7 23.6-20.3.3-.9.9-1.7 1.3-1.7.5 0 1.4-1.4 2.1-3 .7-1.7 1.6-3 2.1-3s.9-.7.9-1.5.4-1.5.9-1.5 1.2-1.1 1.5-2.5c.4-1.6 1.3-2.5 2.7-2.5 2 0 2 .4 1.5 17.2-.2 9.5-.8 18.2-1.2 19.3-.7 1.9-.7 1.9.9.3.9-.9 1.7-2.3 1.7-3 0-.8.4-1.8.9-2.3 1-1 1.2-1.5 3.7-13.5 2.7-12.9 2.7-13.1 4.4-12 .9.6 1.7 3.4 2.2 7.7.4 3.7 1 8.8 1.4 11.2.5 3.1.3 4.6-.7 5.2-1 .6-1.1.9-.1.9.8 0 1.2 2.3 1.3 7.7l.1 7.8 1.5-3.5c4-9.3 4.4-31.5.7-46.3-.4-1.8-.2-2.7.5-2.7s.9.4.6 1c-.3.5.1 1 .9 1 1.1 0 1.6.9 1.6 3 0 1.6.5 3 1 3 .6 0 1 1.5 1 3.4s.5 3.8 1 4.1c.6.3 1 1.9 1 3.4s.4 3.1 1 3.7c.5.5 1 3.3 1.1 6.2.1 2.8.6 5.2 1.1 5.2.4 0 .8 1.4.8 3.1 0 1.7.4 3.8.9 4.8 1.4 2.5 1.6 21.6.3 21.6-.5 0-2.4-1.2-4.1-2.8-3.2-2.8-8.6-3.7-9.4-1.5-.3.8-.9.3-1.5-1.2-.8-2-1.1-2.1-1.1-.6-.1 1.4-.6 1.7-2.2 1.3-1.3-.4-3.6.3-5.8 1.8-5.1 3.1-9.1 9.5-6.1 9.5.6 0 1-.5 1-1.1 0-2.1 6.3-7 9.1-7.1 1.6-.1 2.6-.5 2.3-1-.3-.4.2-.8 1-.8.9 0 1.6.4 1.6 1 0 .5.6.7 1.4.4.9-.3 2 .5 2.9 2.2.9 1.7 1.7 2.3 2.1 1.5.4-.6.3-1.1-.2-1.1s-1.4-1.1-2-2.5c-.7-1.6-.8-2.5-.1-2.5.5 0 1.2.7 1.5 1.5.4.8 1.5 1.5 2.5 1.5s1.9.3 1.9.8c0 .4 1 1.2 2.3 1.7 1.5.7 2.1 1.8 2 3.3-.2 1.6.2 2.2 1.8 2.2 2.6 0 6.1-1.9 5.5-2.9-.3-.5.9-3.3 2.7-6.2 1.8-3 4.7-8.5 6.6-12.2 1.9-3.7 3.8-6.7 4.3-6.7.4 0 .8 4.7.8 10.5 0 15.5-2 18.3-10.4 14.9-1.3-.5-1.7-.4-1.3.3.4.6 0 1-1 .9-.9 0-1.7.3-1.9.9-.3.6 1.7 1 4.6.9 3.8 0 4.9.3 4.6 1.3-.3.7 0 1.3.7 1.3.8 0 .9.2.1.8-.8.5-.5 1.3.7 2.6 1.1 1.1 1.9 1.4 1.9.8 0-.7.5-1.2 1-1.2.6 0 1 .9 1 2s-.4 2-1 2c-.5 0-1 .4-1 1 0 .5.7 1 1.6 1 1.4 0 1.6-.8 1-5.3-.6-4.6-.7-6.5-.3-11.5 0-.6.3-1.2.7-1.2.4 0 1.2-2.6 1.9-5.8 1.4-6.2 3-10.2 4.2-10.2 1.2 0 3.2 12.9 2.5 17-1.1 6.8-1.9 21-1.2 21 .4 0 1.6-.9 2.8-2 1.2-1.1 3.4-2 4.9-2 3.1 0 7.9 4.4 8 7.4 0 1.1.3 3 .5 4.1.7 3.1.7 5.6-.1 10-1.3 7.7-4.5 12.7-9.7 15.4-2.5 1.3-2.8 2-2.8 6.3 0 5.1-2 12.8-3.2 12.8-.5 0-.8.4-.8 1 0 .5.9 1 2 1s2 .4 2 .9.9 1.3 2 1.6c1.1.4 3.1 1.6 4.3 2.8 1.2 1.2 3.4 2.8 4.9 3.6 1.5.8 2.5 1.7 2.3 2.2-.3.4.2 1.4 1 2.2.8.9 1.5 2.3 1.5 3.1 0 .9.4 1.6.9 1.6 2.9 0 3 36 .1 47-.5 1.9-1.1 5.2-1.4 7.3-.4 3.3-.2 3.7 1.8 3.7s2.5-.8 3.6-5.8c1.5-6.7 5.5-19 6.4-19.9.3-.4.6-1.7.6-2.9 0-1.3.5-2.6 1-2.9.6-.3 1-1.6 1-2.9 0-1.2.4-2.6.8-3.2.4-.5 1.4-2.7 2.1-4.9.7-2.2 1.6-4.9 2-6 3-7.7 3.4-9.7 3.2-16.9-.2-5.6.1-8.1 1-8.7 2-1.2 1.2-102.4-.9-117.4-1.2-8.1-2-12.2-3.1-15-1.7-4.3-5.2-15.1-5.3-16.3-.1-.6-.5-1.2-1-1.2-.4 0-.8-.9-.8-2s-.4-2-1-2c-.5 0-1-.9-1-2s-.4-2-1-2c-.5 0-1-.9-1-2s-.3-2-.7-2c-.5 0-1.9-1.8-3.3-4-1.3-2.2-2.8-4-3.2-4-.4 0-.8-.5-.8-1 0-.6-.8-1.8-1.7-2.8-1-1.1-3.5-3.8-5.5-6-2.1-2.3-4.1-4.2-4.6-4.2s-1.8-1-2.9-2.3c-4-4.3-11.5-9.7-13.7-9.7-.9 0-1.6-.4-1.6-.8 0-.7-9.2-5.3-16.2-8.1-1.6-.6-2.8-1.5-2.8-2.1 0-1.3 19.7-1.3 20.5 0 .3.5 1.9 1 3.5 1s3.2.4 3.5 1c.3.5 1.7 1 3 1s2.7.4 3 1c.3.5 1.5 1 2.6 1 1 0 1.9-.5 1.9-1 0-.6-.9-1-2-1s-2-.5-2-1c0-.6-1.1-1-2.5-1s-2.5-.4-2.5-.9-1.2-1.1-2.7-1.4c-1.6-.3-5.5-1.2-8.8-1.9-6.3-1.3-19.1-1.5-26.3-.3-2.8.5-4.8.3-5.5-.4-.6-.6-2.1-1.1-3.3-1.1-1.3 0-2.6-.5-2.9-1-.3-.6-2.6-1-5-1s-4.7-.5-5-1c-.8-1.3-10.8-1.3-12-.1zM69.7 107.2c-.3.7-.5.2-.5-1.2s.2-1.9.5-1.3c.2.7.2 1.9 0 2.5z"/><path d="M241 15c0 .5.5 1 1.1 1 .5 0 .7-.5.4-1-.3-.6-.8-1-1.1-1-.2 0-.4.4-.4 1zM108.3 120.8c-.8.5-.8 1.2.2 2.5 1.1 1.5 1.3 1.6 1.9.2.3-.8 1.6-1.5 2.8-1.5 1.9 0 2-.2.8-1-1.8-1.2-4.1-1.2-5.7-.2zM100.2 125.5c-1.7 2-3.2 4.2-3.2 5 0 .7-.4 1.7-1 2-.5.3-.9 2.7-.8 5.3l.1 4.7.4-4.3c.3-2.5 1-4.5 1.9-4.9.8-.3 1.4-1.5 1.4-2.8 0-1.4.7-2.5 1.9-2.8 2.4-.6 3.1 0 3.1 2.6 0 1.6.3 1.7 1.5.7 2.2-1.8 1.8-4-.6-4-1.8 0-2-.4-1.5-2.5.4-1.4.5-2.5.4-2.5-.2 0-1.8 1.6-3.6 3.5zM114.2 123.5c-1.7.9-2 1.4-1 1.8.8.3.5.6-.8.6-1.7.1-2 .6-1.6 3.2.3 1.7.7 2.7 1.1 2.2.3-.5 1.5-1.3 2.6-1.7l2-.8-2-.8c-1.7-.7-1.7-.9-.2-.9.9-.1 1.7-.8 1.7-1.6s.7-1.5 1.5-1.5 1.5-.5 1.5-1c0-1.3-1.9-1.1-4.8.5zM119.5 125c-.3.5.1 1 .9 1 .9 0 1.6-.5 1.6-1 0-.6-.4-1-.9-1-.6 0-1.3.4-1.6 1zM135.8 125.4c-4.7 1.4-5.9 2.6-2.5 2.6 1.5 0 2.7-.4 2.7-.9 0-.6 1.7-1.1 3.8-1.3 2.5-.2 3.1-.5 1.7-.9-1.1-.3-3.7 0-5.7.5zM143.2 126.7c-1 .4-1 .8-.1 1.9.6.8 1.7 1.4 2.3 1.4.6 0 .4-.5-.4-1-1.3-.8-1.2-1 .3-1 2.8 0 7.3 5.1 6.9 7.7-.2 1.3.1 2.3.7 2.3 2 0 1.1-5.1-1.2-7.4-2.1-2.1-6.1-4.7-6.9-4.5-.2 0-.9.3-1.6.6zM121 128c-.8.5-1.2 1.2-.8 1.5 1.1 1.2 7.8 2.3 7.8 1.4 0-.5.7-.9 1.6-.9.8 0 1.2-.5.9-1-.3-.6-1.7-.7-3-.4-1.2.3-2.6.1-2.9-.5-.9-1.3-1.6-1.4-3.6-.1zM135 131c.8.5 2.2.9 3 .9 1 0 .8-.3-.5-.9-2.7-1.2-4.3-1.2-2.5 0z"/><path d="M102.1 134.6c0 1.1.3 1.4.6.6.3-.7.2-1.6-.1-1.9-.3-.4-.6.2-.5 1.3zM112.5 135c-.3.5.3 1 1.5 1s1.8-.5 1.5-1c-.3-.6-1-1-1.5-1s-1.2.4-1.5 1zM134.5 136.1c-.4.6-1.3.8-2.1.5-.7-.3-1.6-.1-1.9.4-.4.6.7 1 2.4 1 2.1 0 3.1-.5 3.1-1.5 0-1.8-.6-1.9-1.5-.4zM187.5 138c-.3.5-.1 1 .4 1 .6 0 1.1-.5 1.1-1 0-.6-.2-1-.4-1-.3 0-.8.4-1.1 1zM184 141c0 .5.5 1 1 1 .6 0 1-.5 1-1 0-.6-.4-1-1-1-.5 0-1 .4-1 1zM135.8 141.5c-.2.3-.3 1.8 0 3.5.5 3.4 2.2 3.1 2.2-.5 0-2.3-1.2-3.9-2.2-3zM193 142c1.1.7 1.1 1 .2 1-.8 0-1 .5-.6 1.2s1.1 2.8 1.5 4.8l.7 3.5.1-4.3c.1-2.4.6-4.2 1.2-4.2.8 0 .8-.5-.1-1.5-.7-.8-2-1.5-2.9-1.5-1.4 0-1.4.2-.1 1zM153.3 144.2c.3 1 .1 2.1-.4 2.4-.5.3-.9 1.7-.9 3.1 0 4.8-4.9 13.1-7 11.8-1.1-.7-1.3.6-.4 2.9.5 1.3.9 1.4 2 .5.8-.6 1.4-1.6 1.4-2.1s.9-1.8 2-3 2-3.2 2-4.5c0-1.4.4-2.1 1-1.8.6.4 1-1 1-3.4 0-2.2.5-4.3 1-4.6 1.6-1 1.2-3.2-.6-3.2-1 0-1.4.7-1.1 1.9zM174 143c0 .6 1.2 1 2.7 1 2.9 0 2.4-1.2-.7-1.7-1.1-.2-2 .2-2 .7zM187.8 143.7c.7.3 1.6.2 1.9-.1.4-.3-.2-.6-1.3-.5-1.1 0-1.4.3-.6.6zM96.4 145.2c.2.7 1 2.9 1.9 4.8 1.3 2.8 1.6 3.1 1.7 1.3 0-2.6-2-7.3-3.1-7.3-.4 0-.6.6-.5 1.2zM169.2 151c-.1 5.2.2 7 .8 5.9.6-1 .6-4 .1-7.5l-.9-5.9v7.5zM174.1 146.6c0 1.1.3 1.4.6.6.3-.7.2-1.6-.1-1.9-.3-.4-.6.2-.5 1.3zM209.8 146.7c1.2.2 3 .2 4 0 .9-.3-.1-.5-2.3-.4-2.2 0-3 .2-1.7.4zM139.2 150c0 1.4.2 1.9.5 1.2.2-.6.2-1.8 0-2.5-.3-.6-.5-.1-.5 1.3zM208.5 149c-.3.5.1 1 1 1s1.3-.5 1-1c-.3-.6-.8-1-1-1-.2 0-.7.4-1 1zM136.1 152.3c0 1.1.8 3 1.9 4.4 1.1 1.4 2 2.1 2 1.6 0-.6-.6-1.6-1.4-2.3-.8-.6-1.7-2.1-1.9-3.3-.3-1.7-.5-1.8-.6-.4z"/><path d="M208.6 154.9c-.7 4.3 0 7.1 1.7 7.1.8 0 .8-.3 0-1.1-.6-.6-.8-3-.5-5.5.6-5.4-.3-5.8-1.2-.5zM101.2 154.5c0 1.6.2 2.2.5 1.2.2-.9.2-2.3 0-3-.3-.6-.5.1-.5 1.8zM104.8 153.7c.7.3 1.6.2 1.9-.1.4-.3-.2-.6-1.3-.5-1.1 0-1.4.3-.6.6zM109 156c0 1.2.7 2 1.8 2 1.3 0 1.4-.2.3-.9-.7-.5-1-1.4-.7-2 .4-.6.2-1.1-.3-1.1-.6 0-1.1.9-1.1 2zM144 155c0 .5.5 1 1.1 1 .5 0 .7-.5.4-1-.3-.6-.8-1-1.1-1-.2 0-.4.4-.4 1zM225.1 157c-.2 2.9-.4 3.2-1.1 1.5-.7-1.6-.9-1.2-1.1 2-.1 2.2-.2 4.7-.1 5.5 0 .8-.5 1.8-1.1 2.3-.8.6-.7.7.3.4.8-.2 1.7-1.7 1.8-3.3.2-1.6.8-3.2 1.4-3.5.5-.3.8-2.4.5-4.5l-.4-3.9-.2 3.5zM103 156.9c0 1 .7 2.1 1.5 2.5.8.3 1.5.1 1.5-.4 0-.6-.4-1-1-1-.5 0-.7-.7-.4-1.5.4-.8.1-1.5-.5-1.5s-1.1.9-1.1 1.9zM85.6 157.6c-1.1 2.8-.6 4.4 1.2 4.4 2.5 0 4.1-1.8 3.5-4.1-.6-2.3-3.8-2.5-4.7-.3zM173.2 158c0 1.4.2 1.9.5 1.2.2-.6.2-1.8 0-2.5-.3-.6-.5-.1-.5 1.3zM220.5 160.1c-.4.6-.5 1.2-.2 1.5.2.3.7-.2 1-1.1.7-1.7.1-2-.8-.4zM107.1 161.3c-.1 2.6 2.2 4.7 4 3.6 1.1-.7 1.1-.9-.4-.9-1 0-2.2-1-2.7-2.3-.7-1.8-.9-1.9-.9-.4zM135.7 161.1c.7.7 1.5 1 1.8.7.3-.3-.2-.9-1.2-1.2-1.4-.6-1.5-.5-.6.5zM171.3 164.5c0 2.2.2 3 .4 1.7.2-1.2.2-3 0-4-.3-.9-.5.1-.4 2.3zM138.5 164c-.3.5-.2 1 .4 1 .5 0 1.3-.5 1.6-1 .3-.6.2-1-.4-1-.5 0-1.3.4-1.6 1zM208 164.1c0 .5 1.2 2.8 2.6 5 2.3 3.7 2.7 3.9 4.2 2.6.9-.8 2.4-1.7 3.2-2 1.3-.5 1.3-.6 0-.6-.9-.1-2.1.4-2.8 1.1-.9.9-1.5.9-2.4 0-1.5-1.5-.5-2.5 2.8-2.5 1.7 0 2.2-.2 1.3-.7-.9-.6-.5-1 1.2-1.3 1.3-.2 1.1-.3-.6-.1-1.6.2-4 .6-5.3 1-1.7.5-2.1.3-1.7-.9.4-.8-.1-1.7-.9-2-.9-.4-1.6-.2-1.6.4zM142 167c0 .5-1.2 1-2.6 1-1.4 0-2.3.4-1.9 1 .3.5-.2 1-1.2 1-1.4 0-1.5.2-.4.9 1.4.9 4.1-.1 6.8-2.6 1.6-1.4 1.7-2.3.3-2.3-.5 0-1 .4-1 1zM117.1 168.7c-.6 1-1.1 1.2-1.1.5 0-.6-.7-1.2-1.6-1.2-1.2 0-.8.7 1.2 2.2 1.6 1.2 3.1 2.5 3.4 2.9.3.4 1.2 0 2-.9 1.3-1.4 1.2-1.5-.2-1-2 .8-3.4-2.2-1.6-3.4.9-.5 1-.8.1-.8-.7 0-1.7.8-2.2 1.7zM173 168.9c0 .5.7 2.4 1.5 4.2 1.4 3.3 1.4 3.3 1.5.7 0-1.4-.3-3.3-.6-4.2-.7-1.7-2.4-2.2-2.4-.7z"/><path d="M120.8 169.7c.6.2 1.8.2 2.5 0 .6-.3.1-.5-1.3-.5-1.4 0-1.9.2-1.2.5zM128.8 169.7c.7.3 1.6.2 1.9-.1.4-.3-.2-.6-1.3-.5-1.1 0-1.4.3-.6.6zM208 170.5c0 .8.4 1.5 1 1.5.5 0 .7-.7.4-1.5-.4-.8-.8-1.5-1-1.5-.2 0-.4.7-.4 1.5zM220.4 171.5c.3.8.2 1.4-.2 1.3-1.3-.2-4.2 1.4-3.7 2.2.3.4-.9 1.3-2.5 2s-2.8 1.6-2.5 1.9c.2.4-1.8 1.3-4.5 2-2.8.7-5 1.7-5 2.2 0 .5-1.3.9-2.8.9-1.5 0-3.4.6-4.1 1.2-1.1 1-1.4 1-1.8 0-.3-.6-.9-1.2-1.4-1.2-.6 0-.7.4-.4 1 1 1.7-1.5 1.1-5.6-1.2-2.1-1.1-3.6-2.5-3.3-3 .3-.4-.2-.8-1-.8-2 0-2 .7-.1 2.6.8.9 1.5 1.3 1.5 1 0-.3 1 .4 2.1 1.5 1.9 1.9 2.9 2.1 8.9 1.6 4.4-.4 8.2-1.4 11.1-3 2.4-1.3 5.5-2.8 6.7-3.2 1.3-.4 3.3-1.6 4.3-2.6 1.1-1.1 2.3-1.7 2.8-1.5 1.4.9 4.2-3 3.5-4.8-.3-.9-1.1-1.6-1.6-1.6-.6 0-.8.7-.4 1.5zM127.6 173.1c.5.9-.4 1-3.2.5-3.8-.7-3.9-.7-1.6.9 2.3 1.7 7.2 1.4 7.2-.4 0-.4 1.1-.6 2.4-.4 1.3.3 2.7 0 3-.6.5-.7-.8-1.1-3.9-1.1-3.2 0-4.4.3-3.9 1.1z"/><path d="M208.1 175.9c-1.1 1.9-.5 3.1 1.3 3.1.6 0 .4-.5-.4-1-1.2-.8-1.1-1 .7-1 2.7 0 3.8-1.6 1.7-2.4-2.2-.8-2.2-.8-3.3 1.3zM176.5 177c-.3.5-.2 1 .4 1 .5 0 1.3-.5 1.6-1 .3-.6.2-1-.4-1-.5 0-1.3.4-1.6 1zM198 176.4c0 .2.7.7 1.6 1 .8.3 1.2.2.9-.4-.6-1-2.5-1.4-2.5-.6zM137.5 189c-.3.5.1 1 1 1s1.3-.5 1-1c-.3-.6-.8-1-1-1-.2 0-.7.4-1 1zM141 191c0 .5.4 1 .9 1 .6 0 1.3-.5 1.6-1 .3-.6-.1-1-.9-1-.9 0-1.6.4-1.6 1zM287 192c0 1.9.3 2.1 1.2 1.2.9-.9.9-1.5 0-2.4-.9-.9-1.2-.7-1.2 1.2zM145.5 193c-.3.5.1 1 .9 1 .9 0 1.6-.5 1.6-1 0-.6-.4-1-.9-1-.6 0-1.3.4-1.6 1zM153.4 195.6c4.7 1.4 11.5 12.5 11.7 19.3 0 1.6.3 2 .6 1.1.4-.8 1.4-2.2 2.3-3 2.7-2.4 4.2-6 3.6-8.6-.7-2.5.8-3.4 1.7-1.2.3.7.6.3.6-1 .1-1.2.6-2.2 1.2-2.2.5 0 .7-.5.4-1-.3-.6-3.1-1-6.1-1-3.1 0-6.3-.4-7.2-.9-.9-.5-3.7-1.1-6.2-1.4-2.5-.3-3.7-.4-2.6-.1zM168 201c0 .5-.4 1-1 1-.5 0-1-.5-1-1 0-.6.5-1 1-1 .6 0 1 .4 1 1zM137.2 208c0 1.9.2 2.7.5 1.7.2-.9.2-2.5 0-3.5-.3-.9-.5-.1-.5 1.8zM139.1 215.2c0 1.6.4 2.8.9 2.8.6 0 1 .7 1 1.5s.8 1.5 1.8 1.5c1.4 0 1.5-.2.2-1-.8-.5-1.1-1-.6-1 .6 0 .3-.6-.6-1.3-.9-.6-1.8-2.1-2.1-3.2-.4-1.5-.5-1.3-.6.7zM143 223c0 .5.4 1 .9 1 .6 0 1.3-.5 1.6-1 .3-.6-.1-1-.9-1-.9 0-1.6.4-1.6 1zM146.4 224.9c.3.5 2.4.9 4.6.9 2.3.1 3.8-.3 3.5-.9-.4-.5-2.4-.9-4.6-.9-2.2 0-3.8.4-3.5.9zM137 229c0 .6.7 1 1.5 1s1.5-.2 1.5-.4-.7-.6-1.5-1c-.8-.3-1.5-.1-1.5.4zM147.5 233c.3.5 1.3 1 2.1 1s1.2-.5.9-1c-.3-.6-1.3-1-2.1-1s-1.2.4-.9 1zM159 235.5c0 .8.2 1.5.4 1.5s.6-.7 1-1.5c.3-.8.1-1.5-.4-1.5-.6 0-1 .7-1 1.5zM204.2 243.7c.3 1.3-.1 2.5-1.3 3.4-1 .7-2.3 2.5-3 4.1-.6 1.5-1.5 2.8-2 2.8s-.9.9-.9 1.9c0 1-.7 2.1-1.5 2.5-.8.3-1.2 1.2-.9 2.1.7 1.8 2.4 2 2.4.2 0-.7.9-2.3 2-3.5 1.1-1.2 2-2.6 2-3.2 0-.9 3.6-6.6 5-8 1.1-1 .5-3.3-.9-3.8-1-.3-1.2.1-.9 1.5zM94.5 268.7c-.4 1.6-1.5 4.7-2.5 7-1.1 2.4-1.6 4.3-1.2 4.3.5 0 1.9 2.2 3.1 5l2.3 5h5.9c5.2 0 5.9-.2 5.9-2 0-1.1-.4-2-1-2-.5 0-1-.9-1-2s-.4-2-1-2c-.5 0-1-.9-1-2s-.3-2-.7-2c-.9 0-3.3-4.9-3.3-6.7 0-.7-.4-1.3-1-1.3-.5 0-1-.9-1-2 0-3-2.9-2.4-3.5.7zM135 275c0 .6.7 1 1.5 1s1.5-.2 1.5-.4-.7-.6-1.5-1c-.8-.3-1.5-.1-1.5.4zM138.4 277.2c-.3.4.2.8 1 .8.9 0 1.6.5 1.6 1.1 0 .6.7.9 1.5.5.8-.3 2 0 2.7.7.7.7 2.8 1.7 4.7 2.4 3.6 1.3 6.1.1 6.1-3.1 0-1.9 1.6-2.1 2.3-.4.3.8.6.6.6-.5.1-1.1-.6-1.7-1.9-1.7-1.1 0-2 .4-2 .9s-.9 1.1-2 1.4c-1.2.3-1.8.1-1.4-.5.5-.7-.2-.9-2-.4-1.8.4-2.5.3-2.1-.4.3-.5-.2-1.1-1.2-1.1-6.2-.5-7.5-.4-7.9.3z"/></svg>